<svg height="489pt" viewBox="0 -24 489.62 489" width="489pt" xmlns="http://www.w3.org/2000/svg"><path d="m278.582031 38.113281c1.191407-.695312 2.328125-1.515625 3.378907-2.496093 7.636718-7.117188 8.054687-19.078126.933593-26.710938-7.117187-7.636719-19.078125-8.054688-26.710937-.933594-.023438.019532-.039063.039063-.058594.058594-.328125-.410156-.652344-.820312-1.015625-1.210938-7.714844-8.269531-20.667969-8.722656-28.9375-1.007812-8.273437 7.710938-8.722656 20.667969-1.011719 28.9375 4.757813 5.101562 11.511719 7.214844 17.929688 6.285156-1.589844 6.0625-.148438 12.777344 4.4375 17.699219 7.117187 7.632813 19.078125 8.050781 26.710937.933594 6.070313-5.664063 7.5625-14.378907 4.34375-21.554688zm0 0" fill="#e0ebfc"/><path d="m231.542969 50.4375-19.148438 17.851562c-1.695312 1.582032-4.351562 1.492188-5.933593-.207031-1.582032-1.695312-1.492188-4.351562.207031-5.933593l19.144531-17.855469c1.699219-1.582031 4.355469-1.488281 5.9375.207031 1.578125 1.695312 1.488281 4.355469-.207031 5.9375zm0 0" fill="#e0ebfc"/><path d="m240.132812 59.652344-28.359374 26.449218c-1.699219 1.582032-4.355469 1.488282-5.9375-.207031-1.582032-1.699219-1.488282-4.355469.207031-5.9375l28.363281-26.449219c1.695312-1.582031 4.355469-1.488281 5.9375.207032 1.582031 1.699218 1.488281 4.355468-.210938 5.9375zm0 0" fill="#e0ebfc"/><path d="m474.992188 163.992188h-173.429688l-1.359375 48.3125h46.375c1.980469 0 3.804687-.949219 4.773437-2.480469l5.828126-9.246094c1.285156-2.042969 3.71875-3.304687 6.363281-3.304687h106.292969c8.714843 0 15.78125-6.25 15.78125-13.957032v-9.929687c0-5.191407-4.757813-9.394531-10.625-9.394531zm0 0" fill="#4671c6"/><path d="m301.5625 163.992188-1.359375 48.3125h28.199219v-48.3125zm0 0" fill="#f9cfcf"/><path d="m346.578125 216.304688h-46.375c-1.078125 0-2.113281-.441407-2.867187-1.214844-.75-.773438-1.160157-1.820313-1.128907-2.898438l1.359375-48.3125c.058594-2.167968 1.832032-3.886718 3.996094-3.886718h173.433594c8.0625 0 14.625 6.007812 14.625 13.394531v9.929687c0 9.898438-8.875 17.957032-19.78125 17.957032h-106.292969c-1.257813 0-2.425781.5625-2.980469 1.4375l-5.828125 9.246093c-1.695312 2.683594-4.816406 4.347657-8.160156 4.347657zm-42.261719-8h42.261719c.6875 0 1.203125-.320313 1.386719-.613282l5.832031-9.246094c2.007813-3.191406 5.746094-5.171874 9.746094-5.171874h106.292969c6.496093 0 11.78125-4.464844 11.78125-9.957032v-9.929687c0-2.976563-2.972657-5.394531-6.625-5.394531h-169.542969zm0 0" fill="#3762cc"/><path d="m37.933594 163.992188 4.847656 172.339843c.371094 13.253907 12.710938 23.832031 27.800781 23.832031h198.332031c15.089844 0 27.425782-10.578124 27.800782-23.832031l4.847656-172.339843zm0 0" fill="#a4c9ff"/><path d="m304.179688 163.992188h-269.46875c-2.503907 0-4.53125-2.03125-4.53125-4.53125v-23.742188c0-2.503906 2.027343-4.53125 4.53125-4.53125h269.464843c2.503907 0 4.53125 2.027344 4.53125 4.53125v23.742188c0 2.5-2.027343 4.53125-4.527343 4.53125zm0 0" fill="#f9a7a7"/><path d="m236.585938 109.78125c-15.246094-3.507812-30.84375-5.277344-46.484376-5.277344h-40.753906c-15.644531 0-31.238281 1.769532-46.484375 5.277344l-57.5625 13.242188c-3.804687.875-6.5 4.261718-6.5 8.164062h261.847657c0-3.902344-2.695313-7.289062-6.503907-8.164062zm0 0" fill="#e0ebfc"/><path d="m192.707031 104.503906h-36.417969v-13.960937c0-3.015625 2.445313-5.460938 5.460938-5.460938h25.492188c3.019531 0 5.464843 2.445313 5.464843 5.460938zm0 0" fill="#f9a7a7"/><path d="m163.570312 67.480469h21.855469v17.601562h-21.855469zm0 0" fill="#f9cfcf"/><path d="m189.066406 67.480469h-29.136718c-2.011719 0-3.640626-1.632813-3.640626-3.644531v-7.890626c0-2.011718 1.628907-3.640624 3.640626-3.640624h29.136718c2.011719 0 3.640625 1.628906 3.640625 3.640624v7.890626c0 2.011718-1.628906 3.644531-3.640625 3.644531zm0 0" fill="#f9a7a7"/><path d="m268.914062 364.164062h-198.332031c-17.394531 0-31.359375-12.175781-31.796875-27.71875l-4.847656-172.34375c-.03125-1.078124.375-2.125 1.128906-2.898437s1.789063-1.210937 2.867188-1.210937h263.628906c1.078125 0 2.117188.4375 2.867188 1.210937.753906.773437 1.160156 1.820313 1.128906 2.898437l-4.847656 172.34375c-.4375 15.542969-14.402344 27.71875-31.796876 27.71875zm-226.867187-196.171874 4.734375 168.230468c.308594 10.992188 10.988281 19.941406 23.800781 19.941406h198.332031c12.8125 0 23.492188-8.949218 23.800782-19.941406l4.734375-168.230468zm0 0" fill="#3762cc"/><path d="m268.914062 364.164062h-198.332031c-17.394531 0-31.359375-12.175781-31.796875-27.71875l-4.847656-172.34375c-.03125-1.078124.375-2.125 1.128906-2.898437s1.789063-1.210937 2.867188-1.210937h263.628906c1.078125 0 2.117188.4375 2.867188 1.210937.753906.773437 1.160156 1.820313 1.128906 2.898437l-4.847656 172.34375c-.4375 15.542969-14.402344 27.71875-31.796876 27.71875zm-226.867187-196.171874 4.734375 168.230468c.308594 10.992188 10.988281 19.941406 23.800781 19.941406h198.332031c12.8125 0 23.492188-8.949218 23.800782-19.941406l4.734375-168.230468zm0 0" fill="#3762cc"/><path d="m268.914062 364.164062h-198.332031c-17.394531 0-31.359375-12.175781-31.796875-27.71875l-4.847656-172.34375c-.03125-1.078124.375-2.125 1.128906-2.898437s1.789063-1.210937 2.867188-1.210937h263.628906c1.078125 0 2.117188.4375 2.867188 1.210937.753906.773437 1.160156 1.820313 1.128906 2.898437l-4.847656 172.34375c-.4375 15.542969-14.402344 27.71875-31.796876 27.71875zm-226.867187-196.171874 4.734375 168.230468c.308594 10.992188 10.988281 19.941406 23.800781 19.941406h198.332031c12.8125 0 23.492188-8.949218 23.800782-19.941406l4.734375-168.230468zm0 0" fill="#3762cc"/><path d="m37.933594 163.992188h-30.863282c-1.695312 0-3.070312 1.195312-3.070312 2.671874v16.949219c0 1.367188 1.1875 2.515625 2.75 2.65625l26.578125 2.4375c.683594.0625 1.320313.320313 1.8125.734375l3.59375 3.015625zm0 0" fill="#4671c6"/><path d="m395.792969 341.609375c0 52.546875-42.597657 95.148437-95.148438 95.148437-52.546875 0-95.148437-42.601562-95.148437-95.148437 0-52.550781 42.601562-95.148437 95.148437-95.148437 52.550781 0 95.148438 42.597656 95.148438 95.148437zm0 0" fill="#6bdddd"/><path d="m368.449219 313.53125c-15.507813-37.441406-58.429688-55.21875-95.871094-39.710938-37.4375 15.507813-55.21875 58.429688-39.710937 95.871094 15.507812 37.4375 58.433593 55.21875 95.871093 39.710938 37.441407-15.507813 55.21875-58.433594 39.710938-95.871094zm0 0" fill="#e0ebfc"/><path d="m300.644531 310.902344c15 0 27.515625 10.8125 30.175781 25.054687.488282 2.605469 2.726563 4.515625 5.378907 4.515625h11.960937c3.34375 0 5.867188-2.96875 5.40625-6.28125-3.621094-25.972656-25.964844-46.03125-52.921875-46.03125-26.953125 0-49.296875 20.058594-52.917969 46.03125-.460937 3.3125 2.0625 6.28125 5.402344 6.28125h11.964844c2.648438 0 4.890625-1.910156 5.375-4.515625 2.660156-14.242187 15.175781-25.054687 30.175781-25.054687zm0 0" fill="#a4c9ff"/><path d="m316.378906 375.15625c0 8.6875-7.042968 15.734375-15.734375 15.734375-8.6875 0-15.730469-7.046875-15.730469-15.734375s7.042969-15.730469 15.730469-15.730469c8.691407 0 15.734375 7.042969 15.734375 15.730469zm0 0" fill="#f9a7a7"/><g fill="#3762cc"><path d="m300.644531 440.757812c-54.667969 0-99.148437-44.480468-99.148437-99.148437 0-54.671875 44.480468-99.148437 99.148437-99.148437 54.671875 0 99.148438 44.476562 99.148438 99.148437 0 54.667969-44.476563 99.148437-99.148438 99.148437zm0-190.296874c-50.257812 0-91.148437 40.886718-91.148437 91.148437 0 50.257813 40.890625 91.148437 91.148437 91.148437 50.261719 0 91.148438-40.890624 91.148438-91.148437 0-50.261719-40.886719-91.148437-91.148438-91.148437zm0 0"/><path d="m304.179688 167.992188h-269.46875c-4.703126 0-8.53125-3.828126-8.53125-8.53125v-23.742188c0-4.703125 3.828124-8.53125 8.53125-8.53125h269.464843c4.703125 0 8.53125 3.828125 8.53125 8.53125v23.742188c0 4.703124-3.828125 8.53125-8.527343 8.53125zm-269.46875-32.800782c-.292969 0-.53125.238282-.53125.53125v23.738282c0 .292968.238281.53125.53125.53125h269.464843c.292969 0 .53125-.238282.53125-.53125v-23.742188c0-.292969-.238281-.53125-.53125-.53125h-269.464843zm0 0"/><path d="m300.644531 135.191406h-261.847656c-2.207031 0-4-1.792968-4-4 0-5.800781 3.949219-10.765625 9.605469-12.066406l57.5625-13.238281c15.511718-3.570313 31.453125-5.378907 47.378906-5.378907h40.757812c15.925782 0 31.863282 1.808594 47.378907 5.378907l57.558593 13.238281c5.65625 1.300781 9.605469 6.265625 9.605469 12.066406 0 2.207032-1.789062 4-4 4zm-255.253906-8h248.664063c-.257813-.113281-.527344-.203125-.808594-.269531l-57.558594-13.238281c-14.925781-3.433594-30.265625-5.175782-45.585938-5.175782h-40.757812c-15.324219 0-30.660156 1.742188-45.585938 5.175782l-57.558593 13.238281c-.285157.066406-.554688.15625-.808594.269531zm0 0"/><path d="m192.707031 108.503906h-36.417969c-2.210937 0-4-1.792968-4-4v-13.960937c0-5.214844 4.246094-9.460938 9.460938-9.460938h25.492188c5.21875 0 9.464843 4.246094 9.464843 9.460938v13.960937c0 2.210938-1.789062 4-4 4zm-32.417969-8h28.417969v-9.960937c0-.804688-.65625-1.460938-1.460937-1.460938h-25.492188c-.808594 0-1.464844.65625-1.464844 1.460938zm0 0"/><path d="m185.425781 89.082031h-21.855469c-2.207031 0-4-1.792969-4-4v-17.605469c0-2.207031 1.792969-4 4-4h21.855469c2.207031 0 4 1.792969 4 4v17.605469c0 2.207031-1.792969 4-4 4zm-17.855469-8h13.855469v-9.605469h-13.855469zm0 0"/><path d="m189.066406 71.480469h-29.132812c-4.214844 0-7.644532-3.429688-7.644532-7.644531v-7.890626c0-4.210937 3.429688-7.640624 7.644532-7.640624h29.132812c4.214844 0 7.644532 3.429687 7.644532 7.640624v7.890626c-.003907 4.214843-3.429688 7.644531-7.644532 7.644531zm-28.777344-8h28.417969v-7.175781h-28.417969zm0 0"/><path d="m38.734375 196.457031c-.921875 0-1.835937-.316406-2.570313-.9375l-3.394531-2.847656-26.386719-2.417969c-3.636718-.332031-6.382812-3.1875-6.382812-6.640625v-16.949219c0-3.679687 3.171875-6.671874 7.070312-6.671874h30.863282c2.167968 0 3.9375 1.71875 4 3.886718l.800781 28.464844c.042969 1.574219-.839844 3.027344-2.257813 3.714844-.554687.269531-1.148437.398437-1.742187.398437zm-30.734375-14.085937 25.695312 2.355468c.277344.027344.554688.066407.824219.121094l-.472656-16.855468h-26.046875zm0 0"/></g><path d="m300.644531 288.160156c-2.027343 0-4.027343.125-6 .347656v23.003907c1.945313-.386719 3.945313-.609375 6-.609375 15 0 27.515625 10.8125 30.175781 25.054687.488282 2.605469 2.726563 4.515625 5.378907 4.515625h11.960937c3.34375 0 5.867188-2.96875 5.40625-6.28125-3.621094-25.972656-25.964844-46.03125-52.921875-46.03125zm0 0" fill="#f9a7a7"/><path d="m300.640625 381.160156c-.914063 0-1.839844-.210937-2.710937-.652344-2.953126-1.5-4.132813-5.113281-2.632813-8.070312l29.949219-58.949219c1.5-2.953125 5.109375-4.132812 8.066406-2.632812s4.132812 5.117187 2.632812 8.070312l-29.949218 58.949219c-1.058594 2.082031-3.167969 3.285156-5.355469 3.285156zm0 0" fill="#f9cfcf"/><path d="m452.683594 91.777344c-7.660156-2.660156-15.84375-4.027344-24.105469-4.027344h-143.773437c-12.328126 0-22.324219 8.585938-22.324219 19.183594v8.804687l31.664062 7.285157c3.804688.875 6.5 4.261718 6.5 8.164062h3.535157c2.273437 0 4.136718 1.683594 4.460937 3.871094.042969.210937.066406.433594.066406.660156v12.964844h38.347657c6.089843 0 11.03125-4.242188 11.03125-9.480469v-14.894531c0-1.496094 1.410156-2.707032 3.152343-2.707032h80.898438c1.738281 0 3.152343 1.210938 3.152343 2.707032v4.0625c0 2.242187 2.113282 4.0625 4.726563 4.0625h11.03125c2.613281 0 4.730469-1.820313 4.730469-4.0625v-19.910156c0-7.335938-5.179688-13.933594-13.09375-16.683594zm0 0" fill="#4671c6"/><path d="m347.054688 152.6875h-38.347657c-2.207031 0-4-1.792969-4-4v-12.964844c-.054687-.304687-.242187-.53125-.527343-.53125h-3.535157c-2.207031 0-4-1.792968-4-4 0-2.050781-1.398437-3.808594-3.398437-4.269531l-31.664063-7.28125c-1.816406-.417969-3.105469-2.039063-3.105469-3.898437v-8.808594c0-12.78125 11.8125-23.183594 26.328126-23.183594h143.769531c8.746093 0 17.300781 1.429688 25.417969 4.25 9.585937 3.332031 15.78125 11.363281 15.78125 20.460938v19.914062c0 4.445312-3.914063 8.0625-8.726563 8.0625h-11.03125c-4.8125 0-8.730469-3.617188-8.730469-8.0625v-2.769531h-79.199218v13.601562c0 7.433594-6.742188 13.480469-15.03125 13.480469zm-34.347657-8h34.347657c3.8125 0 7.03125-2.511719 7.03125-5.480469v-14.894531c0-3.703125 3.207031-6.710938 7.152343-6.710938h80.898438c3.941406 0 7.152343 3.007813 7.152343 6.710938v3.90625c.097657.082031.339844.214844.726563.214844h11.03125c.386719 0 .628906-.132813.730469-.214844v-19.757812c0-5.644532-4.085938-10.707032-10.40625-12.90625-7.273438-2.527344-14.941406-3.804688-22.792969-3.804688h-143.773437c-10.105469 0-18.324219 6.8125-18.324219 15.183594v5.621094l28.5625 6.570312c4.296875.988281 7.605469 4.085938 8.949219 8.066406h.1875c4.148437 0 7.746093 3.078125 8.402343 7.175782.082031.445312.125.898437.125 1.355468zm0 0" fill="#3762cc"/><path d="m70.414062 38.113281c-1.1875-.695312-2.328124-1.515625-3.378906-2.496093-7.632812-7.117188-8.050781-19.078126-.929687-26.710938 7.117187-7.636719 19.078125-8.054688 26.710937-.933594.019532.019532.035156.039063.054688.058594.328125-.410156.65625-.820312 1.019531-1.210938 7.710937-8.269531 20.667969-8.722656 28.9375-1.007812 8.269531 7.710938 8.722656 20.667969 1.011719 28.9375-4.761719 5.101562-11.515625 7.214844-17.933594 6.285156 1.589844 6.0625.152344 12.777344-4.4375 17.699219-7.117188 7.632813-19.078125 8.050781-26.710938.933594-6.070312-5.664063-7.558593-14.378907-4.34375-21.554688zm0 0" fill="#e0ebfc"/><path d="m117.457031 50.4375 19.144531 17.851562c1.695313 1.582032 4.355469 1.492188 5.9375-.207031 1.582032-1.695312 1.488282-4.351562-.210937-5.933593l-19.144531-17.855469c-1.695313-1.582031-4.355469-1.488281-5.9375.207031-1.582032 1.695312-1.484375 4.355469.210937 5.9375zm0 0" fill="#e0ebfc"/><path d="m108.863281 59.652344 28.359375 26.449218c1.699219 1.582032 4.355469 1.488282 5.9375-.207031 1.582032-1.699219 1.488282-4.355469-.207031-5.9375l-28.359375-26.449219c-1.699219-1.582031-4.355469-1.488281-5.9375.207032-1.582031 1.699218-1.492188 4.355468.207031 5.9375zm0 0" fill="#e0ebfc"/></svg>